<svg width="53" height="49" viewBox="0 0 53 49" fill="none" xmlns="http://www.w3.org/2000/svg">
<g clip-path="url(#clip0_209_1556)">
<path d="M9.50627 11.5257C10.2572 11.1283 11.0082 10.7309 11.3616 10.0685C11.5824 9.67103 11.5824 9.1411 11.4057 8.74366C11.3174 8.61118 11.1849 8.43454 11.0082 8.34622L10.7873 8.30206C9.85966 9.49438 9.06453 10.8192 8.44611 12.2323C8.71115 12.0115 9.02036 11.879 9.24123 11.7024L9.50627 11.5257Z" fill="white"/>
<path d="M8.44613 13.7338C8.09274 13.7338 7.78353 13.6013 7.47432 13.3805C6.94423 12.9389 6.72336 12.1882 6.9884 11.5699C7.65101 10.0243 8.49031 8.61119 9.5063 7.28639C9.85968 6.80063 10.4781 6.57983 11.0965 6.75647L11.3174 6.80063C11.4058 6.80063 11.4499 6.84479 11.5383 6.84479C12.0684 7.06559 12.5101 7.46303 12.7751 7.99295C13.2169 8.87615 13.1727 9.98015 12.6868 10.775C12.0684 11.8349 11.0524 12.409 10.2131 12.8506L9.9922 13.0272C9.77134 13.1597 9.55047 13.2922 9.37377 13.4246C9.10873 13.6013 8.75535 13.7338 8.44613 13.7338Z" fill="white"/>
<path d="M13.1727 7.10976C13.1285 7.02144 13.0402 6.88896 12.996 6.80064C12.9077 6.624 12.7751 6.4032 12.6868 6.22656C12.1567 6.71232 11.715 7.19808 11.2291 7.728L13.261 8.21377C13.4377 7.90464 13.3494 7.46304 13.1727 7.10976Z" fill="white"/>
<path d="M13.3052 9.71522C13.1727 9.71522 13.0402 9.71522 12.9518 9.67106L10.8757 9.1853C10.3456 9.05282 9.94804 8.65538 9.77134 8.16962C9.59465 7.68386 9.72717 7.10978 10.0806 6.66818C10.5665 6.0941 11.0965 5.56418 11.6266 5.07842C11.98 4.72514 12.5101 4.59266 12.996 4.72514C13.4819 4.81346 13.8795 5.16674 14.1003 5.60834C14.1445 5.74082 14.2329 5.8733 14.3212 6.04994C14.4096 6.18242 14.4537 6.3149 14.5421 6.40322C15.028 7.33058 15.0722 8.3021 14.6304 9.00866C14.3212 9.45026 13.8353 9.71522 13.3052 9.71522Z" fill="white"/>
<path d="M10.1247 17.0899C10.3014 17.1783 10.4781 17.3107 10.6548 17.4432C12.2008 18.4147 13.5261 19.7837 14.5862 21.2851C14.6746 21.4176 14.7629 21.6384 14.8954 21.8592C15.0721 22.2125 15.5139 23.0515 15.7347 23.0957C16.0881 23.1399 16.574 22.08 16.6624 21.4176C16.7949 20.5344 16.6182 19.6512 16.4415 18.9447C15.9556 17.0899 15.1163 15.3235 13.9678 13.7338L13.8353 13.5571L13.9236 13.3805C14.0561 13.0714 14.3653 12.8506 14.7187 12.8506C15.2488 12.8064 15.9556 13.1597 16.309 13.6454C16.3973 13.7779 16.5298 13.9546 16.6182 14.1312C16.8832 14.5728 17.1483 15.0144 17.59 15.1027C17.8551 15.1911 18.1201 15.0586 18.2526 14.9261C18.5618 14.6611 18.7385 14.2195 18.7385 13.8662C18.6944 13.1155 18.2526 12.4973 17.6784 11.7907L17.4133 11.4816L17.7667 11.305C18.7385 10.8192 19.887 11.3491 20.5496 12.0557C20.9472 12.4973 21.2564 12.983 21.5215 13.4688C21.6981 13.7779 21.8307 14.0429 22.0515 14.3078C22.2724 14.6611 22.8467 15.3677 23.6418 15.5002C23.7743 14.6611 24.3927 13.8662 25.232 13.6454C26.1597 13.3363 27.264 13.7779 27.7941 14.617C28.1033 15.1027 28.1916 15.6768 28.28 16.2509C28.3242 16.4275 28.3242 16.6483 28.3683 16.825C28.5009 17.3991 28.8543 18.0615 29.3843 18.1498C30.2236 18.2823 30.7537 16.9575 30.9304 16.3834L31.593 14.352C31.9464 13.3363 32.2114 12.3648 31.8139 11.5258C31.6814 11.2166 31.4605 10.9517 31.1954 10.6426C31.0188 10.4218 30.7979 10.1568 30.6212 9.89184C30.1795 9.14112 30.1353 8.08128 30.8862 7.59552C31.5047 7.19808 32.2114 7.46304 32.7415 7.68384L32.9182 7.77216C33.2716 7.90464 33.6692 7.90464 33.89 7.77216C33.9784 7.728 34.0225 7.63968 34.0667 7.55136C34.1551 7.2864 33.8459 6.97728 33.5366 6.80064C33.4041 6.75648 33.3158 6.66816 33.1833 6.624C32.8299 6.49152 32.4765 6.31488 32.2114 6.00576C31.5488 5.2992 31.8139 4.15104 32.4323 3.48864C32.4765 3.44448 32.5206 3.40032 32.609 3.35616C30.2236 2.20799 27.5732 1.54559 24.7019 1.54559C20.2846 1.54559 16.2648 3.13536 13.2168 5.7408C13.3052 5.9616 13.4377 6.22656 13.5702 6.44736C13.6586 6.57984 13.7027 6.66816 13.7469 6.80064C14.1003 7.46304 14.1887 8.34624 13.6144 8.78784L13.4819 8.87616L12.0683 8.52288C12.2892 9.09696 12.245 9.80352 11.98 10.3334C11.4941 11.1725 10.6548 11.6141 9.85965 12.0557L9.63879 12.1882C8.97618 12.5414 8.09272 13.1155 7.91602 13.9987C7.7835 14.617 8.09271 15.3677 8.71114 15.9859C9.02036 16.4275 9.55044 16.7808 10.1247 17.0899Z" fill="white"/>
<path d="M15.7347 24.6413C15.6906 24.6413 15.6464 24.6413 15.6022 24.6413C14.4537 24.553 13.9236 23.449 13.4819 22.5658C13.3936 22.4333 13.3052 22.2125 13.261 22.1683C12.3334 20.7994 11.1407 19.6071 9.8155 18.768C9.6388 18.6797 9.50628 18.5472 9.32959 18.4589C8.71116 18.1056 8.09273 17.7082 7.56265 17.1783C6.59083 16.2067 6.10492 14.9261 6.36997 13.7779C6.67918 12.2765 7.96021 11.4375 8.88785 10.9517L9.15289 10.8192C9.8155 10.4659 10.4339 10.1127 10.699 9.67105C10.7431 9.58273 10.7873 9.36193 10.699 9.18529C10.4781 8.65537 10.5664 8.03713 10.964 7.59553C11.2732 7.24225 11.715 7.06561 12.2009 7.06561C12.0683 6.80065 11.9358 6.53569 11.8475 6.22657C11.6708 5.65249 11.8475 4.99009 12.3334 4.59265C15.6906 1.63392 20.1521 0 24.702 0C27.7058 0 30.577 0.662401 33.2716 1.9872C33.7134 2.208 34.0667 2.6496 34.1109 3.13536C34.1551 3.62112 34.0226 4.15105 33.625 4.50433L33.5367 4.59265C33.4041 4.72513 33.36 4.94593 33.4041 5.03425C33.4483 5.07841 33.6692 5.16673 33.8017 5.21089C33.9784 5.29921 34.1109 5.34337 34.2434 5.43169C35.3036 5.96161 35.8337 7.02145 35.5686 7.99297C35.4361 8.47873 35.0827 8.92033 34.5968 9.14113C33.9784 9.45025 33.1391 9.49441 32.3881 9.22945L32.1673 9.14113C32.0789 9.09697 31.9464 9.05281 31.8581 9.00865C31.8581 9.05281 31.9022 9.05281 31.9022 9.09697C31.9906 9.27361 32.1673 9.45025 32.2998 9.62689C32.609 9.98017 32.9182 10.3776 33.1391 10.8634C33.7134 12.1882 33.36 13.513 32.9624 14.7936L32.2998 16.825C31.3722 19.6071 29.7377 19.6954 29.0751 19.6071C27.9266 19.4746 27.0432 18.5031 26.7339 17.0899C26.6898 16.8691 26.6456 16.6483 26.6014 16.4275C26.5131 15.9859 26.4689 15.5885 26.3364 15.3677C26.2039 15.1027 25.8063 14.9703 25.5413 15.0586C25.3204 15.1469 25.0995 15.4119 25.0553 15.6768C25.0112 16.0743 24.7903 16.4717 24.4369 16.6925C24.0835 16.9575 23.686 17.0458 23.2884 16.9575C21.9632 16.7367 21.1239 15.721 20.6822 15.1027C20.5055 14.8378 20.3288 14.5287 20.1963 14.2637C20.1079 14.9703 19.7104 15.6327 19.1803 16.0743C18.606 16.56 17.8992 16.7367 17.2366 16.6042C17.5017 17.2224 17.6784 17.8848 17.8551 18.5031C18.0759 19.3421 18.2968 20.4461 18.1201 21.6384C18.0318 22.7424 17.2808 24.6413 15.7347 24.6413ZM10.9198 15.8093C11.0965 15.9418 11.2732 16.0301 11.4941 16.1626C12.7751 16.9575 13.9236 18.0173 14.8954 19.1655C14.4537 17.5315 13.7028 16.0301 12.7309 14.6611L12.5984 14.4845C12.2892 14.0429 12.2009 13.4247 12.4659 12.9389L12.5543 12.7623C12.9518 11.9674 13.7028 11.4375 14.6304 11.3491C15.0721 11.305 15.4697 11.3933 15.9114 11.5258C15.9114 11.3933 15.9114 11.2608 15.9556 11.1283C16.044 10.6867 16.3532 10.2893 16.7507 10.0685L17.1041 9.89185C18.7827 9.05281 20.6822 9.84769 21.6982 10.9959C22.2282 11.5699 22.5375 12.144 22.8467 12.7181C22.935 12.8947 23.0234 13.0272 23.1117 13.1597C23.5534 12.7181 24.1277 12.3648 24.702 12.144C26.3364 11.6583 28.1475 12.3207 29.031 13.7779C29.3402 14.3079 29.5169 14.8378 29.6052 15.3235L30.0911 13.8663C30.2236 13.4247 30.5329 12.4973 30.4003 12.1882C30.3562 12.0557 30.1795 11.8791 30.0028 11.6583C29.7819 11.3933 29.5169 11.0842 29.296 10.7309C28.4567 9.31777 28.5009 7.28641 30.047 6.31489C30.1795 6.22657 30.312 6.13825 30.4445 6.09409C30.2236 5.47585 30.2236 4.76929 30.3562 4.15105C28.5451 3.48864 26.6014 3.13536 24.6578 3.13536C21.2564 3.0912 17.9434 4.15105 15.1605 6.13825C15.8673 7.59553 15.6464 9.14113 14.5421 9.98017L14.4095 10.0685C14.1445 10.2451 13.8795 10.3776 13.5702 10.4218C13.4819 10.6867 13.3936 10.9075 13.261 11.1283C12.5543 12.3648 11.4499 12.9389 10.5223 13.4688L10.3014 13.6013C9.41793 14.0871 9.32959 14.352 9.32959 14.352C9.32959 14.3962 9.41794 14.6611 9.68298 14.9261C9.99219 15.2352 10.4339 15.5002 10.9198 15.8093C10.9198 15.7651 10.9198 15.7651 10.9198 15.8093Z" fill="white"/>
<path d="M27.3082 30.6029C27.3966 30.647 27.4849 30.5587 27.5291 30.5146C27.8383 30.2496 27.9267 29.8963 27.8825 29.4989C27.8383 29.3222 27.75 29.3222 27.6175 29.4106C27.3524 29.6314 27.1757 29.8963 27.2199 30.2496C27.2199 30.2938 27.2199 30.3379 27.2199 30.3821C27.2199 30.4704 27.2199 30.5587 27.3082 30.6029Z" fill="white"/>
<path d="M27.3966 32.1485C27.0874 32.1485 26.8665 32.0602 26.734 32.016C26.5131 31.9277 25.7621 31.5303 25.6738 30.5146C25.6738 30.4263 25.6738 30.3379 25.6738 30.2938C25.6296 29.4989 25.983 28.7482 26.6456 28.1741C27.1315 27.7767 27.75 27.6442 28.3242 27.865C28.8985 28.0858 29.296 28.5715 29.3844 29.1898C29.5611 30.1613 29.2519 31.0445 28.5009 31.6627C28.1475 32.0602 27.7058 32.1485 27.3966 32.1485ZM27.2199 30.7795C27.264 30.7795 27.264 30.7795 27.2199 30.7795C27.7058 30.9562 28.2359 30.8679 28.5893 30.6029C28.6334 30.5587 28.7218 30.4263 28.7659 30.2496C28.6776 29.8522 28.4126 29.4106 27.9266 29.1898C27.3966 28.969 26.8665 29.1015 26.5573 29.3664C26.4248 29.4989 26.3806 29.6755 26.4247 29.7639C26.4689 30.2055 26.7781 30.6029 27.2199 30.7795Z" fill="white"/>
<path d="M36.4963 26.5402C36.673 26.4077 36.938 26.3635 37.1589 26.3635C38.8375 26.4519 40.2952 26.0986 40.9136 25.9219C41.3553 24.9063 41.7087 23.8464 41.9738 22.7424C40.3835 21.8592 39.0141 20.4903 38.2632 18.8563C37.954 18.2381 37.7331 17.5757 37.6006 17.0458C37.3797 16.3834 37.1589 15.6327 37.203 14.8378C37.2472 13.4688 37.954 12.3648 38.5724 11.6583C39.0141 11.1283 39.5442 10.6867 40.0743 10.2451C38.4841 7.55137 36.1429 5.2992 33.3158 3.7536C33.1833 3.84192 33.0949 3.93024 33.0066 4.01856C32.609 4.46016 32.4323 5.21088 32.8299 5.65248C33.0066 5.87328 33.2716 5.9616 33.5808 6.09408C33.7133 6.13824 33.8459 6.22656 33.9784 6.27072C34.5526 6.57984 35.0385 7.15393 34.8618 7.77217C34.7735 8.03713 34.5968 8.25793 34.3318 8.39041C33.8459 8.65537 33.2274 8.56705 32.8299 8.43457L32.6532 8.34625C32.1673 8.16961 31.6814 7.99297 31.3721 8.21377C30.9746 8.43457 31.0188 9.14113 31.328 9.58273C31.4605 9.80353 31.6372 10.0243 31.8139 10.2451C32.0789 10.5542 32.344 10.9075 32.5206 11.305C32.9624 12.3207 32.6532 13.513 32.2998 14.5728L31.6372 16.6042C31.1513 18.1498 30.312 18.9005 29.3843 18.8122C28.4567 18.6797 27.9708 17.7965 27.7941 16.9575C27.7499 16.7367 27.7057 16.56 27.7057 16.3392C27.6174 15.8535 27.5732 15.3677 27.3082 14.9703C26.9548 14.3962 26.1597 14.0871 25.4971 14.3079C24.8345 14.5287 24.3486 15.1911 24.3486 15.8976V16.2067H24.0393C23.2 16.2509 22.2724 15.721 21.6098 14.7053C21.4331 14.3962 21.2564 14.1312 21.0797 13.8221C20.8147 13.3363 20.5496 12.8947 20.1962 12.4973C19.7987 12.0557 19.1803 11.7466 18.606 11.7907C19.0477 12.3648 19.4895 13.0714 19.4895 13.8663C19.5336 14.4845 19.2244 15.1027 18.7827 15.5002C18.4293 15.8093 17.9876 15.9418 17.5458 15.8093C16.8832 15.6327 16.4857 15.0586 16.1765 14.5287C16.0881 14.3962 15.9998 14.2195 15.9114 14.0871C15.6906 13.7779 15.2488 13.5571 14.9396 13.5571C14.8954 13.5571 14.8513 13.5571 14.8071 13.6013C15.9114 15.1911 16.7065 16.9575 17.2366 18.8122C17.4575 19.5629 17.6342 20.5786 17.5017 21.5501C17.4133 22.0359 16.9274 23.7581 15.9114 23.7581H15.8672C15.2046 23.7139 14.8071 22.8749 14.4537 22.1683C14.3653 21.9475 14.277 21.7709 14.1887 21.6826C13.2168 20.2253 11.9358 18.9447 10.4781 18.0173C10.3014 17.8848 10.1247 17.7965 9.948 17.7082C9.37375 17.3549 8.79949 17.0016 8.31358 16.56C8.00437 16.2509 7.7835 15.9418 7.60681 15.5885C7.60681 15.6768 7.56263 15.7651 7.56263 15.8535C7.34177 16.2067 6.54664 16.56 6.54664 16.56C7.03255 18.4589 5.97239 19.2096 4.47049 19.5187C1.86426 20.0045 0.583224 22.7866 1.51087 25.8336C1.68756 26.4077 2.04095 26.9376 2.57103 27.2467C3.14529 27.6442 3.67537 27.865 3.85206 27.9533C3.10111 27.8208 1.29 27.3351 -0.167725 25.6128C-0.167725 25.6128 0.715744 28.9248 3.85206 29.8964C3.85206 30.7354 2.92442 31.3978 2.74772 31.6628C3.4545 31.7511 3.98458 31.7952 4.47049 31.8394C6.59082 32.1485 8.09271 34.0916 7.65098 36.2112C7.47429 37.0061 7.1209 37.4036 6.23743 37.4036C2.65938 37.2711 1.73173 38.2426 1.51087 41.952C3.27781 42.3053 4.69136 41.8196 4.69136 41.8196C4.91223 41.0688 5.48648 40.3623 6.19326 40.4948C9.59461 41.113 9.63879 41.0688 8.84367 44.425C8.71114 45.0433 7.7835 47.9137 7.7835 47.9578H5.22144V48.841H44.2708V47.9578H42.3272C42.3272 47.9137 41.3995 44.9991 41.267 44.425C40.516 41.113 40.516 41.113 43.9174 40.4948C44.6242 40.3623 45.1984 41.0688 45.4193 41.8196C45.4193 41.8196 46.8329 42.3053 48.5998 41.952C48.3789 38.2426 47.4955 37.2711 43.8732 37.4036C43.0339 37.4477 42.6364 37.0503 42.4597 36.2112C42.0179 34.0916 43.5198 32.1044 45.6402 31.8394C46.1261 31.7511 46.6562 31.7069 47.3629 31.6628C47.2304 31.3978 46.2586 30.7354 46.2586 29.9405C49.2624 29.0132 50.2784 25.657 50.2784 25.657C48.8207 27.3792 47.0096 27.865 46.2586 27.9975C46.4353 27.9092 46.9212 27.7325 47.5396 27.2909C48.0255 26.9376 48.4231 26.4519 48.5998 25.8778C49.5274 22.8307 48.2464 20.0487 45.6402 19.5629C44.1383 19.2538 43.0339 18.5472 43.5198 16.6483C43.5198 16.6483 42.548 16.4717 42.3272 15.8976C42.0179 14.1312 41.4437 12.409 40.6044 10.8634C40.1185 11.2608 39.6768 11.6583 39.2792 12.0999C38.7491 12.7181 38.0865 13.6896 38.0423 14.8819C38.0423 15.5885 38.219 16.2509 38.3957 16.8691C38.5724 17.3991 38.7491 18.0173 39.0583 18.5914C39.7651 20.0487 40.9136 21.2851 42.3272 22.08C42.4597 21.4176 42.5039 20.7552 42.548 20.0487C42.7247 20.3578 42.9898 20.5786 43.299 20.7994C43.9174 21.1968 44.58 21.5059 45.1543 21.9034C46.1703 22.6099 46.4353 23.6256 46.0377 24.7738C45.6843 25.9219 44.845 26.2311 43.7407 26.2311C43.1665 26.2311 42.548 26.2311 41.9738 26.2311L37.4681 27.2909C37.203 27.3351 36.8938 27.3351 36.6288 27.2467M39.7651 28.6599C39.9418 28.3508 40.1627 28.1741 40.516 28.13C40.6486 28.13 40.8253 28.0416 40.9136 28.1741C41.002 28.3066 40.8694 28.4832 40.7369 28.5715C40.516 28.7923 40.251 28.969 39.8976 28.9248C39.7209 28.8807 39.6767 28.7924 39.7651 28.6599ZM31.2838 47.9137H28.3242C28.3683 47.5162 28.4125 46.9863 28.4567 46.3239C28.545 45.4849 28.5892 44.425 28.6776 43.3652C28.6776 43.3652 28.6776 43.3652 28.7217 43.3652L29.1193 39.0375C29.1193 39.0375 29.1635 41.4663 29.2518 43.4093C29.296 43.4093 29.3402 43.4535 29.3843 43.4976C30.4003 44.16 31.0629 46.7655 31.2838 47.9137ZM21.0355 47.9137H18.341C18.5618 46.898 19.0919 44.8225 19.8429 43.8509C20.1079 41.9079 20.2404 37.8893 20.2404 37.8893L20.8147 45.2641C20.903 46.3681 20.9914 47.3396 21.0355 47.9137ZM9.15288 28.7923C9.06453 28.9248 8.88784 28.8807 8.71114 28.8807C8.40193 28.8365 8.13689 28.6599 7.9602 28.3949C7.87185 28.2183 7.91602 28.1741 8.09271 28.13C8.40193 28.13 8.71114 28.2183 8.93201 28.4832C9.02036 28.5274 9.24123 28.6599 9.15288 28.7923ZM6.10491 26.1869C5.04475 26.1869 4.16128 25.8778 3.80789 24.7296C3.4545 23.5373 3.67537 22.5658 4.69136 21.8592C5.26561 21.4618 5.97239 21.1527 6.54664 20.7552C6.76751 20.6227 6.94421 20.4461 7.1209 20.2695C7.25342 22.3891 7.7835 24.3763 8.6228 26.2311C7.82768 26.1427 6.94421 26.1869 6.10491 26.1869ZM13.0401 42.5703C13.7911 41.113 14.4095 41.5104 15.3372 42.0845C16.4857 42.7469 15.1163 46.3681 14.277 47.9137H11.4057C11.7149 46.633 12.5101 43.586 13.0401 42.5703ZM35.3477 47.9137C34.5085 46.3681 33.1832 42.7469 34.2876 42.0845C35.2152 41.5546 35.8337 41.1572 36.5846 42.5703C37.1147 43.586 37.9098 46.633 38.1749 47.9137H35.3477Z" fill="white"/>
<path d="M44.05 50.2983H5.0006C4.1613 50.2983 3.45453 49.5917 3.45453 48.7527V47.8695C3.45453 47.0304 4.1613 46.3239 5.0006 46.3239H6.45832C6.72336 45.4407 7.07675 44.2925 7.1651 43.9834C7.29762 43.3652 7.47431 42.7028 7.51849 42.3053C7.1651 42.217 6.63501 42.1287 6.06076 41.9962C6.01659 42.0404 6.01659 42.0845 6.01659 42.1728C5.88407 42.6586 5.53068 43.0119 5.04477 43.1885C4.86808 43.2327 3.18948 43.8068 1.02498 43.3652C0.274034 43.1885 -0.256047 42.5261 -0.211874 41.7754C0.0531673 37.2269 1.64341 35.6371 5.92824 35.7696C6.01659 35.2397 5.88407 34.6656 5.57485 34.224C5.22146 33.7383 4.64721 33.385 4.02878 33.2967C3.71957 33.2525 3.41035 33.2083 3.05696 33.2083C2.8361 33.1642 2.57105 33.1642 2.30601 33.12C1.77593 33.0759 1.3342 32.7226 1.06916 32.281C0.848289 31.7952 0.848289 31.2653 1.1575 30.7795C1.20168 30.6912 1.29002 30.6029 1.37837 30.5146C-1.13952 28.8807 -1.89047 26.1427 -1.93464 26.0103C-2.11133 25.3037 -1.80212 24.5971 -1.18369 24.2439C-1.007 24.1555 -0.78613 24.0672 -0.565263 24.0672C-0.609436 22.7424 -0.300222 21.5059 0.318207 20.4461C1.11333 19.1213 2.39436 18.2381 3.94043 17.9731C4.55886 17.8406 4.77973 17.7082 4.86808 17.6198C4.91225 17.5757 4.95642 17.3549 4.8239 16.9574C4.64721 16.2067 5.0006 15.456 5.70737 15.1469C5.79572 15.1027 5.88407 15.0586 5.97241 15.0144C6.19328 14.4845 6.63501 14.1312 7.20927 14.0429C7.87187 13.9546 8.4903 14.3078 8.79952 14.8819C8.88786 15.0586 9.02038 15.2794 9.19708 15.4118C9.55046 15.7651 10.0364 16.0742 10.5223 16.3834C10.699 16.5158 10.8757 16.6042 11.0524 16.7366C12.6868 17.7965 14.1445 19.2096 15.2047 20.8435C15.3372 21.0202 15.4255 21.241 15.5581 21.5059C15.5581 21.5501 15.6022 21.5942 15.6022 21.6384C15.6464 21.5059 15.6464 21.4176 15.6906 21.3293C15.8231 20.6227 15.6464 19.8278 15.4697 19.2096C15.028 17.5315 14.277 15.9418 13.261 14.4845C12.996 14.1312 12.9077 13.6454 13.0402 13.248C13.1285 12.8064 13.4377 12.4531 13.8353 12.2323C14.0562 12.0998 14.277 12.0557 14.5421 12.0115C15.3814 11.9232 16.3974 12.409 16.9274 13.1597C17.06 13.3363 17.1483 13.513 17.2808 13.6896C17.3692 13.8662 17.5459 14.087 17.6342 14.2195C17.7226 14.1312 17.7667 13.9987 17.7667 13.9104C17.7667 13.513 17.4133 13.0272 17.1483 12.6739C16.7949 12.2323 16.7507 11.6141 16.9716 11.1283C17.1925 10.5984 17.6784 10.2893 18.2526 10.201C19.4453 10.1126 20.5055 10.775 21.1239 11.4374C21.6098 11.9232 21.919 12.4973 22.1841 13.0272C22.3166 13.2922 22.4933 13.5571 22.67 13.8221C22.8025 13.9987 22.8909 14.1312 23.0234 14.2637C23.4209 13.6013 24.0394 13.0272 24.8345 12.8064C26.1597 12.409 27.6616 12.983 28.4125 14.1312C28.8101 14.7936 28.9426 15.5002 29.031 16.0742C29.0751 16.2509 29.0751 16.4275 29.1193 16.6042C29.2077 16.9133 29.296 17.1341 29.3844 17.2224C29.5169 17.1341 29.7377 16.825 30.0028 16.1184L30.6654 14.087C30.9304 13.2922 31.1513 12.4531 30.9304 11.9232C30.8421 11.7024 30.6654 11.4816 30.4445 11.2608C30.2237 10.9958 30.0028 10.7309 29.8261 10.4218C29.1635 9.31775 29.1635 7.68383 30.4003 6.93311C30.7537 6.71231 31.1071 6.62399 31.4605 6.62399C30.577 5.51999 30.8863 3.93023 31.7697 3.04702C31.9464 2.87038 32.1231 2.69374 32.2998 2.60542C32.7857 2.25214 33.4483 2.20798 33.9784 2.47294C37.0264 4.15103 39.5884 6.57983 41.3112 9.53855C41.3554 9.62687 41.4437 9.75935 41.4437 9.89183C41.5321 9.98015 41.5762 10.0685 41.6646 10.201C42.5039 11.7907 43.1223 13.4246 43.4757 15.1469C43.5199 15.1469 43.5199 15.1469 43.564 15.191C43.9616 15.2794 44.3592 15.5443 44.58 15.8976C44.8009 16.2509 44.8893 16.6925 44.7567 17.0899C44.6684 17.4874 44.6684 17.7082 44.7126 17.7523C44.7126 17.7523 44.8451 17.9731 45.6402 18.1056C47.1863 18.4147 48.4673 19.2979 49.2624 20.5786C49.8809 21.5942 50.1901 22.8749 50.1459 24.1997C50.3668 24.1997 50.5876 24.288 50.8085 24.3763C51.4269 24.7296 51.7361 25.4803 51.5153 26.1869C51.4711 26.3194 50.5876 29.0573 48.2023 30.6471C48.2906 30.7354 48.3348 30.8237 48.4231 30.912C48.6882 31.3536 48.7323 31.9277 48.5115 32.4135C48.2906 32.8992 47.8047 33.2083 47.2746 33.2525C47.0096 33.2967 46.7445 33.2967 46.5237 33.3408C46.1703 33.385 45.8611 33.385 45.5519 33.4291C44.9334 33.5175 44.3592 33.8707 44.0058 34.3565C43.6966 34.7981 43.564 35.3722 43.6524 35.9021C47.9372 35.7696 49.5275 37.3594 49.7925 41.9079C49.8367 42.6586 49.3066 43.3652 48.5557 43.4976C46.4353 43.9392 44.7567 43.3652 44.5359 43.321C44.05 43.1444 43.6966 42.7911 43.564 42.3053C43.564 42.2612 43.5199 42.1728 43.5199 42.1287C42.9456 42.217 42.4155 42.3495 42.0622 42.4378C42.1063 42.8352 42.283 43.4976 42.4155 44.1159C42.5039 44.425 42.8573 45.5732 43.1223 46.4564H43.9174C44.7567 46.4564 45.4635 47.1629 45.4635 48.002V48.8852C45.596 49.6359 44.8893 50.2983 44.05 50.2983ZM39.6326 47.2071H40.251C39.9418 46.2356 39.5884 45.0432 39.5001 44.69C39.0584 42.7469 38.7933 41.5988 39.4559 40.5389C40.1627 39.4791 41.267 39.3024 43.299 38.905H43.3874C43.4315 38.905 43.4757 38.905 43.5199 38.905C43.5199 38.905 43.5199 38.905 43.4757 38.905C42.018 38.905 40.9578 38.0218 40.6486 36.4762C40.3394 35.0631 40.6486 33.6058 41.4879 32.4576C42.1947 31.4419 43.2548 30.6912 44.4917 30.3821C44.4475 30.2055 44.4475 30.0288 44.4475 29.8522C44.4475 29.4989 44.58 29.1456 44.8009 28.8807C44.6684 28.704 44.58 28.5274 44.4917 28.3066C44.4033 28.0858 44.4033 27.8208 44.4475 27.6C44.1383 27.6442 43.8291 27.6883 43.4757 27.6883C43.1665 27.6883 42.8573 27.6883 42.5481 27.6883C42.4597 27.6883 42.3714 27.6883 42.283 27.6883C42.4155 28.1299 42.4597 28.7923 41.7971 29.5431C41.267 30.1613 40.5602 30.4704 39.7651 30.4263C38.8817 30.3821 38.4399 29.808 38.3074 29.5872C38.2191 29.4106 38.0424 29.0573 38.1307 28.5715L37.5565 28.704C36.9822 28.8365 36.4079 28.7923 35.8779 28.6157C35.0827 28.3507 34.5968 27.4675 34.8619 26.6727V26.6285C34.8177 26.0986 35.0386 25.5687 35.5245 25.2154C36.0104 24.9063 36.5846 24.7296 37.1589 24.7738C38.1749 24.8179 39.0584 24.6855 39.6768 24.553C39.8093 24.1555 39.9418 23.7581 40.0743 23.3607C38.6166 22.345 37.4681 20.976 36.7172 19.4304C36.3638 18.7238 36.1429 18.0173 35.9662 17.399C35.7012 16.56 35.4803 15.6768 35.4803 14.6611C35.5245 12.8506 36.4521 11.3933 37.2472 10.5101C37.4681 10.2893 37.6448 10.0685 37.9098 9.84767C37.4239 9.14111 36.8497 8.47871 36.2312 7.86047C36.2312 7.94879 36.1871 8.03711 36.1871 8.08127C36.0104 8.74367 35.5245 9.31775 34.906 9.62687C34.4643 9.84767 33.9784 9.98015 33.4483 9.98015C33.5808 10.1568 33.6692 10.3334 33.7575 10.5542C34.4201 12.0998 34.0226 13.6454 33.5808 14.9702L32.9182 17.0016C31.8581 20.2253 29.8261 20.3578 28.9868 20.2694C27.5291 20.0928 26.4247 18.9005 26.0713 17.2224C26.0272 17.0016 25.983 16.7366 25.9388 16.5158C25.8947 16.2067 25.8505 15.8534 25.7621 15.721H25.718L25.6738 15.7651V16.0742C25.718 16.9133 25.0554 17.6198 24.2161 17.664H23.9068C22.5816 17.7082 21.3006 17.0458 20.2846 15.7651C20.0638 16.0742 19.8429 16.3834 19.5337 16.6042C19.0919 16.9574 18.6502 17.1782 18.1201 17.2666C18.2526 17.6198 18.341 17.9731 18.4293 18.3264C18.6944 19.2538 18.9152 20.4461 18.6944 21.7267C18.5177 22.9632 17.59 25.2595 15.6022 25.2595C15.5581 25.2595 15.5139 25.2595 15.4697 25.2595C13.9236 25.1712 13.1727 23.7139 12.731 22.7866C12.6868 22.6541 12.5984 22.5216 12.5543 22.4333C11.715 21.1526 10.5665 20.0486 9.28542 19.2096C9.10873 19.1213 8.97621 18.9888 8.79952 18.9005C8.44613 18.6797 8.09274 18.4589 7.73935 18.1939C7.69518 18.3706 7.65101 18.503 7.56266 18.6797C8.13691 18.9005 8.4903 19.4304 8.53447 20.0045C8.66699 21.9034 9.10873 23.7139 9.90385 25.392C10.1247 25.8778 10.0805 26.4519 9.77133 26.8935C9.72716 26.9376 9.72716 26.9818 9.68299 27.0259C9.77133 27.1143 9.85968 27.2026 9.94803 27.2909C9.9922 27.3351 9.9922 27.3792 10.0364 27.3792C10.8757 28.3066 10.4339 29.2339 10.3014 29.4106C10.1247 29.7197 9.55046 30.4704 8.26943 30.2496C7.47431 30.1171 6.81171 29.6755 6.45832 28.969C6.14911 28.3949 6.19328 27.9091 6.28163 27.6C6.14911 27.6 6.06076 27.6 5.92824 27.6C5.57485 27.6 5.22146 27.5559 4.95642 27.5117C5.0006 27.7325 5.0006 27.9975 4.91225 28.2183C4.86808 28.4391 4.73556 28.6157 4.64721 28.7923C4.86808 29.0573 5.0006 29.4106 5.0006 29.7639C5.0006 29.9405 5.0006 30.1171 4.95642 30.2938C6.14911 30.6029 7.20927 31.3536 7.96022 32.3693C8.79952 33.5616 9.10873 34.9747 8.79952 36.3879C8.4903 37.9335 7.47431 38.8167 5.97241 38.8167C6.01659 38.8167 6.06076 38.8167 6.10493 38.8167H6.19328C8.22526 39.17 9.37377 39.3907 10.0364 40.4506C10.7431 41.5104 10.4339 42.6586 9.9922 44.6016C9.90385 44.9549 9.55047 46.1472 9.24125 47.1188H9.9922C10.2572 45.9706 11.0524 42.9236 11.6708 41.7312C11.98 41.113 12.5101 40.274 13.5261 40.009C14.5862 39.6999 15.4697 40.2298 16.0881 40.5831L16.1323 40.6272C18.1643 41.8196 17.1483 45.1757 16.309 47.1188H16.9274C17.325 45.3524 17.8109 44.0276 18.3852 43.1444C18.606 41.2013 18.7386 37.7568 18.7386 37.7127C18.7827 36.8736 19.4453 36.2554 20.2404 36.2112C21.0356 36.1671 21.7423 36.8295 21.8307 37.6243L22.4049 45.0432C22.4491 45.8381 22.5375 46.5447 22.5816 47.1188H26.9106C26.9548 46.8538 26.9548 46.5005 26.999 46.1472V46.1031L27.2199 43.1444C27.2199 43.056 27.264 42.9677 27.264 42.8794L27.6174 38.7725C27.7058 37.9335 28.4125 37.3594 29.2077 37.3594C30.047 37.4035 30.6654 38.0659 30.7096 38.905C30.7096 38.905 30.7096 40.8039 30.7979 42.5261C31.3722 43.1444 32.1231 44.3808 32.7415 47.1188H33.36C32.5207 45.1757 31.5047 41.8196 33.5367 40.6272L33.5808 40.5831C34.2434 40.2298 35.0827 39.6999 36.1429 40.009C37.1147 40.274 37.689 41.113 37.9982 41.7312C38.6166 43.0119 39.3676 46.0589 39.6326 47.2071ZM35.5245 43.9834C35.6128 44.4692 35.7895 45.0432 36.0546 45.6615C35.8779 44.9991 35.7012 44.425 35.5245 43.9834ZM14.1003 43.9834C13.9236 44.425 13.7469 45.0432 13.5703 45.6615C13.8353 45.0432 14.012 44.4692 14.1003 43.9834ZM46.3028 40.4506C46.4353 40.4506 46.5678 40.4948 46.7004 40.4948C46.4795 39.0816 45.9494 38.8608 44.0058 38.905C44.8893 38.9491 45.7727 39.5232 46.3028 40.4506ZM5.17729 38.8608C3.63122 38.8608 3.18948 39.1699 2.96862 40.4506C3.10114 40.4506 3.23366 40.4064 3.36618 40.4064C3.89626 39.4791 4.73556 38.905 5.6632 38.8608C5.4865 38.905 5.35398 38.8608 5.17729 38.8608ZM7.87187 29.4989C7.96022 29.5872 8.13691 29.6314 8.22526 29.6314C8.57865 29.6314 9.06456 29.3664 9.3296 28.8807C9.59464 28.3507 9.50629 27.865 9.37377 27.5559C9.37377 27.5559 9.37377 27.5559 9.37377 27.5117C9.1529 27.6 8.93204 27.6442 8.667 27.6442C8.4903 27.6442 8.26943 27.6442 8.09274 27.6442C8.00439 27.7325 7.91605 27.8208 7.8277 27.9533L8.79952 28.4832L9.02038 28.3507L8.84369 28.4832L7.87187 29.4989ZM40.6928 29.1456L40.7811 29.5872H40.8253C40.9578 29.5431 41.0903 29.4106 41.1345 29.3664L40.6928 29.1456ZM39.3676 28.3066C39.3676 28.4832 39.4117 28.704 39.5443 28.8807C39.7651 29.2339 40.0743 29.4989 40.4277 29.5872L40.4719 29.0131L40.5602 28.0858L40.7369 29.1456L41.1787 29.3664C41.3554 29.0573 41.3995 28.5274 41.1345 28.0416C41.0903 27.9975 41.0903 27.9533 41.0462 27.9091L39.3676 28.3066ZM7.78353 28.0416C7.56266 28.3949 7.56266 28.7923 7.651 29.1456L8.71117 28.5715L7.78353 28.0416ZM5.97241 22.8749C5.83989 22.9632 5.75154 23.0074 5.61902 23.0957C5.30981 23.3165 5.08894 23.5373 5.30981 24.288C5.39816 24.553 5.44233 24.6413 6.10493 24.6413C6.19328 24.6413 6.3258 24.6413 6.41415 24.6413C6.23745 24.0672 6.10493 23.449 5.97241 22.8749ZM42.9898 24.6413C43.1665 24.6413 43.3432 24.6413 43.5199 24.6413C44.2266 24.6413 44.2708 24.5088 44.315 24.288C44.5359 23.5815 44.315 23.3606 44.0058 23.0957C43.8291 22.9632 43.6524 22.8749 43.4315 22.7424C43.4315 22.8307 43.4315 22.919 43.3874 23.0074C43.299 23.5373 43.1665 24.1114 42.9898 24.6413ZM39.8535 13.4246C39.5884 13.8221 39.3676 14.3078 39.3234 14.8378C39.3234 15.2794 39.4559 15.8093 39.6326 16.3392C39.7651 16.825 39.986 17.3549 40.2069 17.8848C40.4277 18.3264 40.6928 18.768 41.002 19.1654C41.1787 18.9005 41.4437 18.6797 41.7971 18.5472C41.7088 18.2381 41.6204 17.929 41.6204 17.5757C41.2229 17.3107 40.8695 16.9574 40.6486 16.4717C40.6044 16.3392 40.5603 16.2067 40.5161 16.0742C40.3836 15.1469 40.1627 14.3078 39.8535 13.4246Z" fill="white"/>
<path d="M22.2725 30.6029C22.405 30.5587 22.3608 30.3379 22.3608 30.2496C22.3608 29.8963 22.2283 29.6314 21.9633 29.4106C21.8307 29.2781 21.7424 29.3223 21.6982 29.4989C21.6099 29.808 21.6982 30.1171 21.9191 30.3821C22.0074 30.4704 22.14 30.6471 22.2725 30.6029Z" fill="white"/>
<path d="M22.2283 32.1485C21.7865 32.1485 21.2123 31.9719 20.6822 31.3095C20.1963 30.6912 20.0196 29.8963 20.1963 29.1456C20.4172 28.2624 21.0356 27.9974 21.3006 27.9091C21.5657 27.8208 22.2283 27.6883 22.9351 28.2624C23.5977 28.7923 23.9069 29.4989 23.9069 30.2938C23.9069 30.3379 23.9069 30.3821 23.9069 30.4263C23.9069 31.6627 22.9351 32.0602 22.7142 32.1043C22.6258 32.1043 22.4491 32.1485 22.2283 32.1485ZM20.8147 30.2496C20.8147 30.3821 20.9031 30.5587 20.9914 30.6029C21.2565 30.8237 21.7865 30.9562 22.2725 30.7795H22.3166C22.8467 30.6029 23.1118 30.1613 23.2001 29.8522C23.2443 29.6755 23.2001 29.4989 23.1117 29.4106C22.9351 29.1898 22.3608 28.9248 21.7865 29.1014C21.389 29.2339 21.0798 29.4989 20.9473 29.8522L22.3608 30.2496H20.8147Z" fill="white"/>
<path d="M9.55046 11.5257C10.3014 11.1283 11.0524 10.7309 11.4057 10.0685C11.6266 9.67103 11.6266 9.1411 11.4499 8.74366C11.3616 8.61118 11.2291 8.43454 11.0524 8.34622L10.8315 8.30206C9.90385 9.49438 9.10872 10.8192 8.4903 12.2323C8.75534 12.0115 9.06455 11.879 9.28542 11.7024L9.55046 11.5257Z" fill="#1C6B72"/>
<path d="M13.2168 7.10976C13.1727 7.02144 13.0843 6.88896 13.0401 6.80064C12.9518 6.624 12.8193 6.4032 12.7309 6.22656C12.2008 6.71232 11.7591 7.19808 11.2732 7.728L13.3052 8.21377C13.4819 7.90464 13.3935 7.46304 13.2168 7.10976Z" fill="#1C6B72"/>
<path d="M10.1247 17.0899C10.3014 17.1783 10.4781 17.3107 10.6548 17.4432C12.2009 18.4147 13.5261 19.7837 14.5862 21.2851C14.6746 21.4176 14.7629 21.6384 14.8954 21.8592C15.0721 22.2125 15.5139 23.0515 15.7347 23.0957C16.0881 23.1399 16.574 22.08 16.6624 21.4176C16.7949 20.5344 16.6182 19.6512 16.4415 18.9447C15.9556 17.0899 15.1163 15.3235 13.9678 13.7338L13.8353 13.5571L13.9236 13.3805C14.0562 13.0714 14.3654 12.8506 14.7188 12.8506C15.2488 12.8064 15.9556 13.1597 16.309 13.6454C16.3973 13.7779 16.5299 13.9546 16.6182 14.1312C16.8833 14.5728 17.1483 15.0144 17.59 15.1027C17.8551 15.1911 18.1201 15.0586 18.2526 14.9261C18.5618 14.6611 18.7385 14.2195 18.7385 13.8662C18.6944 13.1155 18.2526 12.4973 17.6784 11.7907L17.4133 11.4816L17.7667 11.305C18.7385 10.8192 19.8871 11.3491 20.5497 12.0557C20.9472 12.4973 21.2564 12.983 21.5215 13.4688C21.6982 13.7779 21.8307 14.0429 22.0516 14.3078C22.2724 14.6611 22.8467 15.3677 23.6418 15.5002C23.7743 14.6611 24.3927 13.8662 25.232 13.6454C26.1597 13.3363 27.264 13.7779 27.7941 14.617C28.1033 15.1027 28.1917 15.6768 28.28 16.2509C28.3242 16.4275 28.3242 16.6483 28.3684 16.825C28.5009 17.3991 28.8543 18.0615 29.3844 18.1498C30.2237 18.2823 30.7537 16.9575 30.9304 16.3834L31.593 14.352C31.9464 13.3363 32.2115 12.3648 31.8139 11.5258C31.6814 11.2166 31.4605 10.9517 31.1955 10.6426C31.0188 10.4218 30.7979 10.1568 30.6212 9.89184C30.1795 9.14112 30.1353 8.08128 30.8863 7.59552C31.5047 7.19808 32.2115 7.46304 32.7415 7.68384L32.9182 7.77216C33.2716 7.90464 33.6692 7.90464 33.89 7.77216C33.9784 7.728 34.0226 7.63968 34.0667 7.55136C34.1551 7.2864 33.8459 6.97728 33.5367 6.80064C33.4041 6.75648 33.3158 6.66816 33.1833 6.624C32.8299 6.49152 32.4765 6.31488 32.2115 6.00576C31.5489 5.2992 31.8139 4.15104 32.4323 3.48864C32.4765 3.44448 32.5207 3.40032 32.609 3.35616C30.2236 2.20799 27.5732 1.54559 24.702 1.54559C20.2846 1.54559 16.2648 3.13536 13.2169 5.7408C13.3052 5.9616 13.4377 6.22656 13.5702 6.44736C13.6586 6.57984 13.7028 6.66816 13.7469 6.80064C14.1003 7.46304 14.1887 8.34624 13.6144 8.78784L13.5261 8.92032L12.1125 8.56704C12.3334 9.14112 12.2892 9.84768 12.0242 10.3776C11.5383 11.2166 10.699 11.6582 9.90385 12.0998L9.68298 12.2323C9.02038 12.5856 8.13691 13.1597 7.96021 14.0429C7.82769 14.6611 8.1369 15.4118 8.75533 16.0301C9.06455 16.4275 9.59463 16.7808 10.1247 17.0899Z" fill="#1C6B72"/>
<path d="M27.3524 30.6029C27.4407 30.6471 27.5291 30.5588 27.5732 30.5146C27.8825 30.2497 27.9708 29.8964 27.9266 29.4989C27.8825 29.3223 27.7941 29.3223 27.6616 29.4106C27.3965 29.6314 27.2199 29.8964 27.264 30.2497C27.264 30.2938 27.264 30.338 27.264 30.3821C27.264 30.4705 27.264 30.5588 27.3524 30.6029Z" fill="#1C6B72"/>
<path d="M43.6524 37.3594C42.8131 37.4035 42.4155 37.0061 42.2388 36.167C41.7971 34.0474 43.299 32.0602 45.4193 31.7952C45.9052 31.7069 46.4353 31.6627 47.1421 31.6186C47.0096 31.3536 46.0377 30.6912 46.0377 29.8963C49.0415 28.969 50.0575 25.6128 50.0575 25.6128C48.5998 27.335 46.7887 27.8208 46.0377 27.9533C46.2144 27.865 46.7003 27.6883 47.3188 27.2467C47.8047 26.8934 48.2022 26.4077 48.3789 25.8336C49.3066 22.7866 48.0255 20.0045 45.4193 19.5187C43.9174 19.2096 42.8131 18.503 43.299 16.6041C43.299 16.6041 42.3272 16.4275 42.1063 15.8534C41.7971 14.087 41.2228 12.3648 40.3835 10.8192C39.8976 11.2166 39.4559 11.6141 39.0583 12.0557C38.5282 12.6739 37.8656 13.6454 37.8215 14.8377C37.8215 15.5443 37.9982 16.2067 38.1749 16.8249C38.3516 17.3549 38.5282 17.9731 38.8375 18.5472C39.5442 20.0045 40.6927 21.241 42.1063 22.0358C42.2388 21.3734 42.283 20.711 42.3272 20.0045C42.5039 20.3136 42.7689 20.5344 43.0781 20.7552C43.6965 21.1526 44.3591 21.4618 44.9334 21.8592C45.9494 22.5658 46.2144 23.5814 45.8169 24.7296C45.4635 25.8778 44.6242 26.1869 43.5198 26.1869C42.9456 26.1869 42.3272 26.1869 41.7529 26.1869L37.2472 27.2467C36.9822 27.2909 36.673 27.2909 36.4079 27.2026L35.8337 27.0259L36.4963 26.5843C36.673 26.4518 36.938 26.4077 37.1589 26.4077C38.8375 26.496 40.2952 26.1427 40.9136 25.9661C41.3553 24.9504 41.7087 23.8906 41.9738 22.7866C40.3835 21.9034 39.0142 20.5344 38.2632 18.9005C37.954 18.2822 37.7331 17.6198 37.6006 17.0899C37.3797 16.4275 37.1589 15.6768 37.203 14.8819C37.2472 13.5129 37.954 12.4089 38.5724 11.7024C39.0142 11.1725 39.5442 10.7309 40.0743 10.2893C38.4841 7.59549 36.1429 5.34333 33.3158 3.79773C33.1833 3.88605 33.0949 3.97437 33.0066 4.06269C32.609 4.50429 32.4323 5.25501 32.8299 5.69661C33.0066 5.91741 33.2716 6.00573 33.5808 6.13821C33.7133 6.18237 33.8459 6.27069 33.9784 6.31485C34.5526 6.62397 35.0385 7.19805 34.8618 7.81629C34.7735 8.08125 34.5968 8.30205 34.3318 8.43454C33.8459 8.6995 33.2274 8.61118 32.8299 8.4787L32.6532 8.39037C32.1673 8.21373 31.6814 8.03709 31.3721 8.2579C30.9746 8.4787 31.0188 9.18526 31.328 9.62686C31.4605 9.84766 31.6372 10.0685 31.8139 10.2893C32.0789 10.5984 32.344 10.9517 32.5207 11.3491C32.9624 12.3648 32.6532 13.5571 32.2998 14.6169L31.6372 16.6483C31.1513 18.1939 30.312 18.9446 29.3843 18.8563C28.4567 18.7238 27.9708 17.8406 27.7941 17.0016C27.7499 16.7808 27.7057 16.6041 27.7057 16.3833C27.6174 15.8976 27.5732 15.4118 27.3082 15.0144C26.9548 14.4403 26.1597 14.1312 25.4971 14.352C24.8345 14.5728 24.3486 15.2352 24.3486 15.9417V16.2509H24.0393C23.2 16.295 22.2724 15.7651 21.6098 14.7494C21.4331 14.4403 21.2564 14.1753 21.0797 13.8662C20.8147 13.3805 20.5496 12.9389 20.1962 12.5414C19.7987 12.0998 19.1803 11.7907 18.606 11.8349C19.0477 12.4089 19.4895 13.1155 19.4895 13.9104C19.5336 14.5286 19.2244 15.1469 18.7827 15.5443C18.4293 15.8534 17.9876 15.9859 17.5458 15.8534C16.8832 15.6768 16.4857 15.1027 16.1765 14.5728C16.0881 14.4403 15.9998 14.2637 15.9114 14.1312C15.6906 13.8221 15.2488 13.6013 14.9396 13.6013C14.8954 13.6013 14.8513 13.6013 14.8071 13.6454C15.9114 15.2352 16.7065 17.0016 17.2366 18.8563C17.4575 19.607 17.6342 20.6227 17.5017 21.5942C17.4133 22.08 16.9274 23.8022 15.9114 23.8022H15.8673C15.2046 23.7581 14.8071 22.919 14.4537 22.2125C14.3654 21.9917 14.277 21.815 14.1887 21.7267C13.2168 20.2694 11.9358 18.9888 10.4781 18.0614C10.3014 17.9289 10.1247 17.8406 9.948 17.7523C9.37375 17.399 8.79949 17.0457 8.31358 16.6041C8.00437 16.295 7.7835 15.9859 7.60681 15.6326C7.60681 15.7209 7.56263 15.8093 7.56263 15.8976C7.34177 16.2509 6.54665 16.6041 6.54665 16.6041C7.03255 18.503 5.97239 19.2537 4.47049 19.5629C1.86426 20.0486 0.583224 22.8307 1.51087 25.8778C1.68756 26.4518 2.04095 26.9818 2.57103 27.2909C3.14529 27.6883 3.67537 27.9091 3.85206 27.9974C3.10111 27.865 1.29 27.3792 -0.167725 25.657C-0.167725 25.657 0.715744 28.969 3.85206 29.9405C3.85206 30.7795 2.92442 31.4419 2.74772 31.7069C3.4545 31.7952 3.98458 31.8394 4.47049 31.8835C6.59082 32.1926 8.09272 34.1357 7.65098 36.2554C7.47429 37.0502 7.1209 37.4477 6.23743 37.4477C2.65938 37.3152 1.73173 38.2867 1.51087 41.9962C3.27781 42.3495 4.69136 41.8637 4.69136 41.8637C4.91223 41.113 5.48648 40.4064 6.19326 40.5389C9.59462 41.1571 9.63879 41.113 8.84367 44.4691C8.71115 45.0874 7.7835 47.9578 7.7835 48.0019H5.22144V48.8851H44.2708V48.0019H42.3272C42.3272 47.9578 41.3995 45.0432 41.267 44.4691C40.5161 41.1571 40.5161 41.1571 43.9174 40.5389C44.6242 40.4064 45.1984 41.113 45.4193 41.8637C45.4193 41.8637 46.8329 42.3495 48.5998 41.9962C48.1581 38.1984 47.2746 37.1827 43.6524 37.3594ZM39.8093 28.6598C39.986 28.3507 40.2068 28.1741 40.5602 28.1299C40.6927 28.1299 40.8694 28.0416 40.9578 28.1741C41.0461 28.3066 40.9136 28.4832 40.7811 28.5715C40.5602 28.7923 40.2952 28.969 39.9418 28.9248C39.7651 28.8806 39.7209 28.7923 39.8093 28.6598ZM21.4773 30.8678C21.0355 30.5146 20.9914 29.9846 21.0797 29.4547C21.1681 28.969 21.3889 28.5715 21.8307 28.3507C22.0515 28.2182 22.2282 28.0858 22.4491 27.9533C22.8467 27.6442 22.9792 27.2467 23.0234 26.761C23.0234 26.5843 23.0234 26.3635 22.8467 26.2752C22.67 26.1869 22.4933 26.2752 22.3608 26.4077C22.0515 26.6726 21.7865 26.9376 21.4773 27.2026C21.3006 27.3792 21.2122 27.6 21.2122 27.8208C21.2122 27.9091 21.2122 27.9974 21.1239 27.9974C21.0355 27.9974 20.9914 27.9533 20.9472 27.865C20.8589 27.7325 20.7263 27.6 20.6822 27.4675C20.2404 26.6726 19.5336 26.1869 18.7385 25.8336C18.6502 25.7894 18.5618 25.7894 18.4735 25.7011C18.5177 25.6128 18.606 25.657 18.6502 25.657C19.7103 25.6128 20.7705 25.6128 21.7865 25.8336C21.8748 25.8336 21.9632 25.8336 22.0515 25.7894C22.5816 25.6128 23.0675 25.392 23.5976 25.2595C24.0393 25.1712 24.4369 25.127 24.8786 25.127C24.8786 25.127 24.8786 25.127 24.9228 25.127C24.9228 25.127 24.9228 25.127 24.967 25.127C25.3645 25.127 25.8063 25.1712 26.248 25.2595C26.7781 25.392 27.3082 25.6128 27.7941 25.7894C27.8824 25.8336 27.9708 25.8336 28.0591 25.8336C29.0751 25.657 30.1353 25.6128 31.1954 25.657C31.2396 25.657 31.328 25.6128 31.3721 25.7011C31.2838 25.7894 31.1954 25.7894 31.1071 25.8336C30.312 26.1869 29.6052 26.6726 29.1635 27.4675C29.0751 27.6 28.9868 27.7325 28.8984 27.865C28.8543 27.9091 28.8101 27.9974 28.7217 27.9974C28.6334 27.9974 28.6334 27.865 28.6334 27.8208C28.5892 27.6 28.545 27.335 28.3683 27.2026C28.1033 26.9376 27.7941 26.6726 27.4849 26.4077C27.3524 26.2752 27.1757 26.1869 26.999 26.2752C26.8223 26.3635 26.7781 26.5843 26.8223 26.761C26.8664 27.2467 26.999 27.6442 27.3965 27.9533C27.5732 28.0858 27.7941 28.2624 28.015 28.3507C28.4567 28.6157 28.6776 28.969 28.7659 29.4547C28.8543 29.9846 28.8101 30.5146 28.3683 30.8678C28.1033 31.0445 27.9266 31.2653 27.8824 31.4861C28.015 31.7952 28.5009 32.5901 29.2076 33.4291C31.5488 36.0346 33.7133 35.6813 33.7133 35.6813C31.1071 37.0061 29.2076 36.0787 28.1033 35.1072C27.9266 34.9747 27.7499 34.7981 27.5732 34.6214C27.4849 34.5331 27.1757 34.1798 26.9106 33.6941C26.8223 33.4733 26.5131 33.5174 26.4689 33.7824C26.1155 36.7853 25.4529 45.6615 25.3645 47.9578H24.3927C24.3044 45.6615 23.6418 36.7853 23.2884 33.7824C23.2442 33.5616 22.9792 33.5174 22.8467 33.6941C22.5816 34.1798 22.2724 34.5331 22.1841 34.6214C22.0515 34.7539 21.919 34.8422 21.7865 34.9747C20.6822 35.9904 18.7827 37.0944 16.2206 35.7254C16.2206 35.7254 19.357 36.2554 22.1399 31.5302C21.8748 31.2653 21.6981 31.0445 21.4773 30.8678ZM31.328 47.9136H28.3683C28.4125 47.5162 28.4567 46.9863 28.5009 46.3239C28.5892 45.4848 28.6334 44.425 28.7217 43.3651C28.7217 43.3651 28.7217 43.3651 28.7659 43.3651L29.1635 39.0375C29.1635 39.0375 29.2076 41.4663 29.296 43.4093C29.3402 43.4093 29.3843 43.4535 29.4285 43.4976C30.4445 44.16 31.1071 46.7655 31.328 47.9136ZM21.0797 47.9136H18.3851C18.606 46.8979 19.1361 44.8224 19.887 43.8509C20.1521 41.9079 20.2846 37.8893 20.2846 37.8893L20.8589 45.264C20.9472 46.368 21.0355 47.3395 21.0797 47.9136ZM9.19705 28.7923C9.10871 28.9248 8.93201 28.8806 8.75532 28.8806C8.4461 28.8365 8.18106 28.6598 8.00437 28.3949C7.91602 28.2182 7.9602 28.1741 8.13689 28.1299C8.44611 28.1299 8.75532 28.2182 8.97618 28.4832C9.06453 28.5274 9.24123 28.6598 9.19705 28.7923ZM6.14908 26.1869C5.08892 26.1869 4.20545 25.8778 3.85206 24.7296C3.49867 23.5373 3.71954 22.5658 4.73553 21.8592C5.30979 21.4618 6.01656 21.1526 6.59082 20.7552C6.81169 20.6227 6.98838 20.4461 7.16507 20.2694C7.29759 22.3891 7.82768 24.3763 8.66697 26.231C7.87185 26.1427 6.98838 26.1869 6.14908 26.1869ZM7.65098 33.7382C8.22524 34.5773 9.15288 35.7254 10.5223 36.432C10.5664 36.3878 10.6106 36.3437 10.699 36.2554C10.8756 36.1229 11.0082 36.0346 11.229 36.0346C12.1567 35.9462 13.0401 35.6813 13.8353 35.1955C14.012 35.1072 14.1003 34.9747 14.0561 34.7539C14.012 34.4448 13.9678 34.1357 13.9236 33.8266C13.8794 33.5616 13.9236 33.5616 14.1887 33.6499C14.4537 33.7382 14.6746 33.8707 14.8954 34.0032C15.0721 34.0915 15.1605 34.0915 15.293 33.8707C15.7789 32.9875 16.2206 32.0602 16.7065 31.177C15.7789 29.8963 13.4377 28.439 12.4217 27.865C12.1567 27.6883 11.6708 27.4675 11.6266 27.1584L11.5824 27.0259C14.7187 28.2624 16.3973 29.9846 16.9716 30.6912C16.9716 30.6912 16.9716 30.647 17.0158 30.6029C17.0599 30.6912 17.1483 30.7354 17.1925 30.8237C17.59 31.2653 17.59 31.2653 17.325 31.751C16.7949 32.7226 16.309 33.6941 15.7789 34.6656C15.6906 34.8422 15.6022 34.8864 15.3813 34.7981C15.1605 34.6656 14.8954 34.5773 14.6746 34.4448C14.4537 34.3565 14.4095 34.4006 14.4095 34.6214C14.4537 34.9306 14.4537 35.2397 14.542 35.5488C14.5862 35.7696 14.4979 35.8579 14.3212 35.9904C13.5261 36.5203 12.6426 36.7411 11.7149 36.8295C11.4941 36.8736 11.3616 36.9178 11.1849 37.0503C11.0965 37.1386 11.0523 37.1827 11.0082 37.2269C9.10871 36.2995 8.00437 34.4006 7.65098 33.7382ZM13.0843 42.5703C13.8353 41.113 14.4537 41.5104 15.3813 42.0845C16.5299 42.7469 15.1605 46.368 14.3212 47.9136H11.4499C11.7591 46.633 12.5542 43.5859 13.0843 42.5703ZM35.3919 47.9136C34.5526 46.368 33.2274 42.7469 34.3318 42.0845C35.2594 41.5546 35.8778 41.1571 36.6288 42.5703C37.1589 43.5859 37.954 46.633 38.219 47.9136H35.3919ZM38.7491 37.2269C38.7049 37.1827 38.6608 37.1386 38.5724 37.0503C38.3957 36.9178 38.2632 36.8295 38.0423 36.8295C37.1147 36.7411 36.2312 36.4762 35.4361 35.9904C35.2594 35.9021 35.1711 35.7696 35.2152 35.5488C35.2594 35.2397 35.3036 34.9306 35.3478 34.6214C35.3919 34.3565 35.3478 34.3565 35.0827 34.4448C34.8177 34.5331 34.5968 34.6656 34.3759 34.7981C34.1992 34.8864 34.1109 34.8864 33.9784 34.6656C33.4483 33.6941 32.9624 32.7226 32.4323 31.751C32.1673 31.2653 32.1673 31.2653 32.5648 30.8237C32.609 30.7354 32.6973 30.6912 32.7415 30.6029C32.7857 30.6912 32.8299 30.7795 32.9182 30.9562C33.4483 31.9277 33.9342 32.8992 34.4643 33.8707C34.5526 34.0474 34.641 34.0915 34.8618 34.0032C35.0827 33.8707 35.3478 33.7824 35.5686 33.6499C35.7895 33.5616 35.8337 33.6058 35.8337 33.8266C35.7895 34.1357 35.7895 34.4448 35.7011 34.7539C35.657 34.9747 35.7453 35.063 35.922 35.1955C36.7171 35.7254 37.6006 35.9462 38.5282 36.0346C38.7491 36.0787 38.8816 36.1229 39.0583 36.2554C39.1467 36.3437 39.1908 36.3878 39.235 36.432C40.5602 35.7696 41.532 34.6214 42.1063 33.7382C41.7087 34.4006 40.6044 36.2995 38.7491 37.2269Z" fill="#1C6B72"/>
<path d="M22.3166 30.6029C22.4491 30.5587 22.405 30.3379 22.405 30.2496C22.405 29.8963 22.2724 29.6314 22.0074 29.4106C21.8749 29.2781 21.7865 29.3223 21.7424 29.4989C21.654 29.808 21.7424 30.1171 21.9632 30.3821C22.0074 30.4704 22.1399 30.6471 22.3166 30.6029Z" fill="#1C6B72"/>
</g>
<defs>
<clipPath id="clip0_209_1556">
<rect width="53" height="49" fill="white"/>
</clipPath>
</defs>
</svg>
